<svg id="id" width="84" height="86" fill="none" xmlns="http://www.w3.org/2000/svg"><g clip-path="url(#a)" fill="#03FF85"><path d="M12.302 73.405c3.856 3.948 8.348 7.049 13.349 9.214A40.9 40.9 0 0 0 42 86c5.669 0 11.17-1.138 16.349-3.38 5.001-2.165 9.493-5.266 13.35-9.214a42.922 42.922 0 0 0 8.999-13.667c2.19-5.303 3.301-10.934 3.301-16.738 0-4.639-.718-9.203-2.134-13.566-.456-1.406-1.94-2.168-3.314-1.7-1.374.467-2.118 1.986-1.661 3.392A38.394 38.394 0 0 1 78.757 43c0 10.051-3.824 19.502-10.766 26.609-6.943 7.108-16.172 11.022-25.99 11.022-9.818 0-19.048-3.915-25.99-11.022C9.068 62.501 5.245 53.052 5.245 43c0-10.051 3.824-19.502 10.766-26.609C22.95 9.283 32.18 5.368 42 5.368c6.424 0 12.745 1.721 18.28 4.976 1.256.738 2.859.295 3.58-.99.72-1.285.288-2.927-.968-3.665A41.252 41.252 0 0 0 42 0a40.916 40.916 0 0 0-16.35 3.38c-5 2.165-9.492 5.266-13.348 9.214a42.922 42.922 0 0 0-9 13.667C1.112 31.565 0 37.196 0 43s1.111 11.435 3.301 16.738a42.923 42.923 0 0 0 9 13.667Z"/><path d="M35.154 48.915s-4.988-3.243-11.011-8.222a2.89 2.89 0 0 0-4.19.531 3.063 3.063 0 0 0-.152 3.38c3.048 5.072 8.314 13.07 12.386 18.323 1.922 2.48 5.334 2.709 7.575.53 12.896-12.531 24.866-28.34 39.198-50.23.831-1.27.414-2.996-.902-3.719a2.484 2.484 0 0 0-3.03.503c-15.9 17.236-24.054 25.428-39.874 38.904Z"/></g><defs><clipPath id="a"><path fill="#fff" d="M0 0h84v86H0z"/></clipPath></defs></svg>
