<svg width="28" height="28" viewBox="0 0 28 28" fill="none" xmlns="http://www.w3.org/2000/svg">
<g clip-path="url(#clip0_139_238)">
<path d="M2.53125 8.51208V19.4881C2.53125 20.1937 2.90085 20.8321 3.51685 21.1905L13.0257 26.6785C13.6304 27.0257 14.3808 27.0257 14.9856 26.6785L24.4944 21.1905C25.0992 20.8433 25.48 20.1937 25.48 19.4881V8.51208C25.48 7.80648 25.1104 7.16808 24.4944 6.80968L14.9856 1.32168C14.3808 0.974479 13.6304 0.974479 13.0257 1.32168L3.51685 6.80968C2.91205 7.15688 2.54245 7.80648 2.54245 8.51208H2.53125Z" fill="#213147"/>
<path d="M16.0721 16.128L14.7169 19.8464C14.6833 19.9472 14.6833 20.0592 14.7169 20.1712L17.0465 26.5664L19.7457 25.0096L16.5089 16.128C16.4305 15.9264 16.1505 15.9264 16.0721 16.128Z" fill="#12AAFF"/>
<path d="M18.7936 9.87849C18.7152 9.67689 18.4352 9.67689 18.3568 9.87849L17.0016 13.5969C16.968 13.6977 16.968 13.8097 17.0016 13.9217L20.8208 24.3937L23.52 22.8369L18.7936 9.88969V9.87849Z" fill="#12AAFF"/>
<path d="M14.0001 1.736C14.0673 1.736 14.1345 1.7584 14.1905 1.792L24.4721 7.728C24.5953 7.7952 24.6625 7.9296 24.6625 8.064V19.936C24.6625 20.0704 24.5841 20.2048 24.4721 20.272L14.1905 26.208C14.1345 26.2416 14.0673 26.264 14.0001 26.264C13.9329 26.264 13.8657 26.2416 13.8097 26.208L3.52805 20.272C3.40485 20.2048 3.33765 20.0704 3.33765 19.936V8.0528C3.33765 7.9184 3.41605 7.784 3.52805 7.7168L13.8097 1.7808C13.8657 1.7472 13.9329 1.7248 14.0001 1.7248V1.736ZM14.0001 0C13.6305 0 13.2721 0.0896 12.9361 0.28L2.65445 6.216C1.99365 6.5968 1.59045 7.2912 1.59045 8.0528V19.9248C1.59045 20.6864 1.99365 21.3808 2.65445 21.7616L12.9361 27.6976C13.2609 27.888 13.6305 27.9776 14.0001 27.9776C14.3697 27.9776 14.7281 27.888 15.0641 27.6976L25.3457 21.7616C26.0065 21.3808 26.4097 20.6864 26.4097 19.9248V8.0528C26.4097 7.2912 26.0065 6.5968 25.3457 6.216L15.0529 0.28C14.7281 0.0896 14.3585 0 13.9889 0H14.0001Z" fill="#9DCCED"/>
<path d="M7.19043 24.4048L8.14243 21.8064L10.0464 23.3856L8.26563 25.0208L7.19043 24.4048Z" fill="#213147"/>
<path d="M13.1264 7.21286H10.5168C10.3264 7.21286 10.1472 7.33606 10.08 7.51526L4.49121 22.8369L7.19041 24.3937L13.3504 7.51526C13.4064 7.35846 13.2944 7.20166 13.1376 7.20166L13.1264 7.21286Z" fill="white"/>
<path d="M17.696 7.21286H15.0864C14.896 7.21286 14.7168 7.33606 14.6496 7.51526L8.26562 25.0097L10.9648 26.5665L17.9088 7.51526C17.9648 7.35846 17.8528 7.20166 17.696 7.20166V7.21286Z" fill="white"/>
</g>
<defs>
<clipPath id="clip0_139_238">
<rect width="28" height="28" fill="white"/>
</clipPath>
</defs>
</svg>
