<svg width="24" height="25" viewBox="0 0 24 25" fill="none" xmlns="http://www.w3.org/2000/svg">
  <g opacity="0.5" clip-path="url(#clip0_140_309)">
    <path d="M2.16959 7.79595V17.2039C2.16959 17.8087 2.48639 18.3559 3.01439 18.6631L11.1648 23.3671C11.6832 23.6647 12.3264 23.6647 12.8448 23.3671L20.9952 18.6631C21.5136 18.3655 21.84 17.8087 21.84 17.2039V7.79595C21.84 7.19115 21.5232 6.64395 20.9952 6.33675L12.8448 1.63275C12.3264 1.33515 11.6832 1.33515 11.1648 1.63275L3.01439 6.33675C2.49599 6.63435 2.17919 7.19115 2.17919 7.79595H2.16959Z" fill="currentColor" opacity="0.2"/>
    <path d="M13.776 14.3241L12.6144 17.5113C12.5856 17.5977 12.5856 17.6937 12.6144 17.7897L14.6112 23.2713L16.9248 21.9369L14.1504 14.3241C14.0832 14.1513 13.8432 14.1513 13.776 14.3241Z" fill="currentColor"/>
    <path d="M16.1088 8.96725C16.0416 8.79445 15.8016 8.79445 15.7344 8.96725L14.5728 12.1544C14.544 12.2408 14.544 12.3368 14.5728 12.4328L17.8464 21.4088L20.16 20.0744L16.1088 8.97685V8.96725Z" fill="currentColor"/>
    <path d="M12 1.988C12.0576 1.988 12.1152 2.0072 12.1632 2.036L20.976 7.124C21.0816 7.1816 21.1392 7.2968 21.1392 7.412V17.588C21.1392 17.7032 21.072 17.8184 20.976 17.876L12.1632 22.964C12.1152 22.9928 12.0576 23.012 12 23.012C11.9424 23.012 11.8848 22.9928 11.8368 22.964L3.02399 17.876C2.91839 17.8184 2.86079 17.7032 2.86079 17.588V7.4024C2.86079 7.2872 2.92799 7.172 3.02399 7.1144L11.8368 2.0264C11.8848 1.9976 11.9424 1.9784 12 1.9784V1.988ZM12 0.5C11.6832 0.5 11.376 0.5768 11.088 0.74L2.27519 5.828C1.70879 6.1544 1.36319 6.7496 1.36319 7.4024V17.5784C1.36319 18.2312 1.70879 18.8264 2.27519 19.1528L11.088 24.2408C11.3664 24.404 11.6832 24.4808 12 24.4808C12.3168 24.4808 12.624 24.404 12.912 24.2408L21.7248 19.1528C22.2912 18.8264 22.6368 18.2312 22.6368 17.5784V7.4024C22.6368 6.7496 22.2912 6.1544 21.7248 5.828L12.9024 0.74C12.624 0.5768 12.3072 0.5 11.9904 0.5H12Z" fill="currentColor"/>
    <path d="M6.16318 21.4184L6.97918 19.1912L8.61118 20.5448L7.08478 21.9464L6.16318 21.4184Z" fill="currentColor"/>
    <path d="M11.2512 6.68245H9.01438C8.85118 6.68245 8.69758 6.78805 8.63998 6.94165L3.84958 20.0745L6.16318 21.4089L11.4432 6.94165C11.4912 6.80725 11.3952 6.67285 11.2608 6.67285L11.2512 6.68245Z" fill="currentColor"/>
    <path d="M15.168 6.68245H12.9312C12.768 6.68245 12.6144 6.78805 12.5568 6.94165L7.08478 21.9369L9.39838 23.2713L15.3504 6.94165C15.3984 6.80725 15.3024 6.67285 15.168 6.67285V6.68245Z" fill="currentColor"/>
  </g>
  <defs>
    <clipPath id="clip0_140_309">
      <rect width="24" height="24" fill="currentColor" transform="translate(0 0.5)"/>
    </clipPath>
  </defs>
</svg>
