<svg width="44" height="44" viewBox="0 0 44 44" fill="none" xmlns="http://www.w3.org/2000/svg">
  <rect x="0.75" y="0.75" width="42.5" height="42.5" stroke="white" stroke-width="1.5" stroke-dasharray="7 7"/>
  <path fill-rule="evenodd" clip-rule="evenodd"
        d="M21.4697 12.4697C21.7626 12.1768 22.2374 12.1768 22.5303 12.4697L30.0303 19.9697C30.3232 20.2626 30.3232 20.7374 30.0303 21.0303C29.7374 21.3232 29.2626 21.3232 28.9697 21.0303L22.75 14.8107V31C22.75 31.4142 22.4142 31.75 22 31.75C21.5858 31.75 21.25 31.4142 21.25 31V14.8107L15.0303 21.0303C14.7374 21.3232 14.2626 21.3232 13.9697 21.0303C13.6768 20.7374 13.6768 20.2626 13.9697 19.9697L21.4697 12.4697Z"
        fill="currentColor"/>
</svg>
