<svg width="100%" height="100%" viewBox="0 0 28 28" fill="none" xmlns="http://www.w3.org/2000/svg">
<path d="M14 28C21.732 28 28 21.732 28 14C28 6.26801 21.732 0 14 0C6.26801 0 0 6.26801 0 14C0 21.732 6.26801 28 14 28Z" fill="black"/>
<path d="M14.4358 3.5V11.2613L20.9957 14.1925L14.4358 3.5Z" fill="white" fill-opacity="0.602"/>
<path d="M14.4357 3.5L7.875 14.1925L14.4357 11.2613V3.5Z" fill="white"/>
<path d="M14.4358 19.2221V24.4957L21 15.4141L14.4358 19.2221Z" fill="white" fill-opacity="0.602"/>
<path d="M14.4357 24.4957V19.2212L7.875 15.4141L14.4357 24.4957Z" fill="white"/>
<path d="M14.4358 18.0013L20.9957 14.1924L14.4358 11.2629V18.0013Z" fill="white" fill-opacity="0.2"/>
<path d="M7.875 14.1924L14.4357 18.0013V11.2629L7.875 14.1924Z" fill="white" fill-opacity="0.602"/>
</svg>
