<svg width="20" height="20" viewBox="0 0 20 20" fill="none" xmlns="http://www.w3.org/2000/svg">
  <path d="M9.16667 14.1667H10.8333V9.16669H9.16667V14.1667ZM10 7.50002C10.2361 7.50002 10.4342 7.42002 10.5942 7.26002C10.7542 7.10002 10.8339 6.90224 10.8333 6.66669C10.8333 6.43058 10.7533 6.2328 10.5933 6.07335C10.4333 5.91391 10.2356 5.83391 10 5.83335C9.76389 5.83335 9.56612 5.91335 9.40667 6.07335C9.24723 6.23335 9.16723 6.43113 9.16667 6.66669C9.16667 6.9028 9.24667 7.10085 9.40667 7.26085C9.56667 7.42085 9.76445 7.50058 10 7.50002ZM10 18.3334C8.84723 18.3334 7.76389 18.1145 6.75001 17.6767C5.73612 17.2389 4.85417 16.6453 4.10417 15.8959C3.35417 15.1459 2.76056 14.2639 2.32334 13.25C1.88612 12.2361 1.66723 11.1528 1.66667 10C1.66667 8.84724 1.88556 7.76391 2.32334 6.75002C2.76112 5.73613 3.35473 4.85419 4.10417 4.10419C4.85417 3.35419 5.73612 2.76058 6.75001 2.32335C7.76389 1.88613 8.84723 1.66724 10 1.66669C11.1528 1.66669 12.2361 1.88558 13.25 2.32335C14.2639 2.76113 15.1458 3.35474 15.8958 4.10419C16.6458 4.85419 17.2397 5.73613 17.6775 6.75002C18.1153 7.76391 18.3339 8.84724 18.3333 10C18.3333 11.1528 18.1144 12.2361 17.6767 13.25C17.2389 14.2639 16.6453 15.1459 15.8958 15.8959C15.1458 16.6459 14.2639 17.2397 13.25 17.6775C12.2361 18.1153 11.1528 18.3339 10 18.3334Z" fill="currentColor"/>
</svg>
