<svg width="100%" height="100%" viewBox="0 0 28 28" fill="none" xmlns="http://www.w3.org/2000/svg">
<g clip-path="url(#clip0_139_234)">
<path d="M23.1648 13.813C22.7692 12.6913 21.8388 11.9361 20.7839 11.8848C19.6044 11.8261 18.7253 12.332 18.2418 13.4611C17.6117 14.9275 17.5897 16.4451 18.2564 17.9042C18.6813 18.8353 19.4652 19.3925 20.5348 19.4145C21.5824 19.4292 22.381 18.9746 22.8938 18.0435C23.3114 17.303 23.4286 16.4965 23.4359 15.6606C23.4432 15.0301 23.3773 14.4069 23.1648 13.813ZM23.1648 13.813C22.7692 12.6913 21.8388 11.9361 20.7839 11.8848C19.6044 11.8261 18.7253 12.332 18.2418 13.4611C17.6117 14.9275 17.5897 16.4451 18.2564 17.9042C18.6813 18.8353 19.4652 19.3925 20.5348 19.4145C21.5824 19.4292 22.381 18.9746 22.8938 18.0435C23.3114 17.303 23.4286 16.4965 23.4359 15.6606C23.4432 15.0301 23.3773 14.4069 23.1648 13.813ZM25.9707 0H2.0293C0.747253 0 0 0.74784 0 2.0309V25.9764C0 27.2522 0.747253 28 2.0293 28H25.978C27.2601 28 28 27.2522 28 25.9691V2.02357C28 0.740508 27.2527 0 25.9707 0ZM22.5421 7.00183C23.1429 7.00183 23.5531 7.40508 23.5458 8.00628C23.5458 8.59283 23.1355 8.96675 22.5055 8.96675C21.8755 8.96675 21.5385 8.57816 21.5458 7.97696C21.5531 7.40508 21.9634 7.00183 22.5421 7.00183ZM18.5641 7.00183C19.1722 6.9945 19.5751 7.38308 19.5751 7.97696C19.5751 8.57083 19.1722 8.93742 18.5494 8.94475C17.956 8.94475 17.5824 8.57083 17.5824 7.96963C17.5824 7.36842 17.9707 7.00183 18.5641 7.00183ZM13.8388 18.6007C13.8388 18.7986 13.7802 18.9526 13.6557 19.0992C12.967 19.9571 12.0293 20.375 10.9963 20.6023C9.57509 20.9102 8.16117 20.9395 6.80586 20.3456C5.12088 19.6125 4.12454 18.2634 3.75824 16.5111C3.31868 14.4656 3.30403 12.398 3.97802 10.3818C4.73993 8.09427 6.87179 6.78921 9.27472 7.03849C10.2711 7.1338 11.2088 7.32443 12.0293 7.92564C13.1136 8.71013 13.6264 9.81723 13.8315 11.1443C13.304 11.1443 12.7985 11.1296 12.293 11.1443C12.0366 11.1516 12.044 10.9683 12 10.8217C11.2967 8.51951 8.64469 7.66902 6.74725 9.14271C6.24176 9.54595 5.89744 10.0812 5.71429 10.6897C5.10623 12.7279 5.01831 14.8028 5.69963 16.8264C6.43223 18.9819 8.05128 19.5758 10.044 19.2825C10.6886 19.1946 11.3114 19.0553 11.8315 18.63C12 18.498 12.0879 18.3587 12.0879 18.1314C12.0733 17.3176 12.0733 16.5038 12.0879 15.69C12.0952 15.4114 11.9853 15.3674 11.7436 15.3674C10.9451 15.382 10.1465 15.3674 9.34799 15.382C9.07692 15.382 8.97436 15.3307 8.97436 15.0301C8.95238 13.9157 8.94505 13.9157 10.0659 13.9157C11.1868 13.9157 12.337 13.923 13.4725 13.9084C13.7436 13.9084 13.8388 13.9743 13.8388 14.2676C13.8242 15.7046 13.8315 17.149 13.8388 18.5933V18.6007ZM23.1282 20.0597C20.9597 21.5334 17.4359 20.9248 16.4029 17.7502C15.8974 16.2032 15.9267 14.6342 16.5641 13.1312C17.4725 10.9976 19.7216 9.97853 21.956 10.6604C23.9048 11.2469 24.7839 12.7206 25.0916 14.6195C25.1502 14.9788 25.1429 15.3527 25.1648 15.6606C25.1209 17.4716 24.652 19.0333 23.1282 20.0597ZM20.7839 11.8848C19.6044 11.8261 18.7253 12.332 18.2418 13.4611C17.6117 14.9275 17.5897 16.4451 18.2564 17.9042C18.6813 18.8353 19.4652 19.3925 20.5348 19.4145C21.5824 19.4292 22.381 18.9746 22.8938 18.0435C23.3114 17.303 23.4286 16.4965 23.4359 15.6606C23.4432 15.0301 23.3773 14.4069 23.1648 13.813C22.7692 12.6913 21.8388 11.9361 20.7839 11.8848ZM23.1648 13.813C22.7692 12.6913 21.8388 11.9361 20.7839 11.8848C19.6044 11.8261 18.7253 12.332 18.2418 13.4611C17.6117 14.9275 17.5897 16.4451 18.2564 17.9042C18.6813 18.8353 19.4652 19.3925 20.5348 19.4145C21.5824 19.4292 22.381 18.9746 22.8938 18.0435C23.3114 17.303 23.4286 16.4965 23.4359 15.6606C23.4432 15.0301 23.3773 14.4069 23.1648 13.813ZM23.1648 13.813C22.7692 12.6913 21.8388 11.9361 20.7839 11.8848C19.6044 11.8261 18.7253 12.332 18.2418 13.4611C17.6117 14.9275 17.5897 16.4451 18.2564 17.9042C18.6813 18.8353 19.4652 19.3925 20.5348 19.4145C21.5824 19.4292 22.381 18.9746 22.8938 18.0435C23.3114 17.303 23.4286 16.4965 23.4359 15.6606C23.4432 15.0301 23.3773 14.4069 23.1648 13.813Z" fill="white"/>
</g>
<defs>
<clipPath id="clip0_139_234">
<rect width="28" height="28" fill="white"/>
</clipPath>
</defs>
</svg>
