<svg width="20" height="21" viewBox="0 0 20 21" fill="none" xmlns="http://www.w3.org/2000/svg">
  <path
    d="M9.16663 14.666H10.8333V9.66602H9.16663V14.666ZM9.99996 7.99935C10.2361 7.99935 10.4341 7.91935 10.5941 7.75935C10.7541 7.59935 10.8338 7.40157 10.8333 7.16602C10.8333 6.9299 10.7533 6.73213 10.5933 6.57268C10.4333 6.41324 10.2355 6.33324 9.99996 6.33268C9.76385 6.33268 9.56607 6.41268 9.40663 6.57268C9.24718 6.73268 9.16718 6.93046 9.16663 7.16602C9.16663 7.40213 9.24663 7.60018 9.40663 7.76018C9.56663 7.92018 9.7644 7.9999 9.99996 7.99935ZM9.99996 18.8327C8.84718 18.8327 7.76385 18.6138 6.74996 18.176C5.73607 17.7382 4.85413 17.1446 4.10413 16.3952C3.35413 15.6452 2.76051 14.7632 2.32329 13.7493C1.88607 12.7355 1.66718 11.6521 1.66663 10.4993C1.66663 9.34657 1.88551 8.26324 2.32329 7.24935C2.76107 6.23546 3.35468 5.35352 4.10413 4.60352C4.85413 3.85352 5.73607 3.2599 6.74996 2.82268C7.76385 2.38546 8.84718 2.16657 9.99996 2.16602C11.1527 2.16602 12.2361 2.3849 13.25 2.82268C14.2638 3.26046 15.1458 3.85407 15.8958 4.60352C16.6458 5.35352 17.2397 6.23546 17.6775 7.24935C18.1152 8.26324 18.3338 9.34657 18.3333 10.4993C18.3333 11.6521 18.1144 12.7355 17.6766 13.7493C17.2388 14.7632 16.6452 15.6452 15.8958 16.3952C15.1458 17.1452 14.2638 17.7391 13.25 18.1768C12.2361 18.6146 11.1527 18.8332 9.99996 18.8327Z"
    fill="currentColor"/>
</svg>
