<svg width="20" height="12" viewBox="0 0 20 12" fill="none" xmlns="http://www.w3.org/2000/svg">
<g clip-path="url(#clip0_141_624)">
<path d="M10.0007 10.7133L11.7502 7.99056V11.5L16.8885 8.91347L17.6246 6.82074L13.2237 9.04799V8.2613L18.0302 5.78715L18.8039 3.67229L13.2055 6.52957V5.76502L19.264 2.61486L20 0.5L12.6702 4.25635C12.6702 4.25635 12.0443 4.54923 11.7683 5.11115L10.0007 7.85604L8.23308 5.11115C7.95706 4.54923 7.33115 4.25635 7.33115 4.25635L0 0.5L0.736042 2.61486L6.79585 5.76331V6.52786L1.19746 3.67229L1.97114 5.78715L6.77772 8.2613V9.04799L2.3768 6.82074L3.11285 8.91347L8.2512 11.5V7.99056L10.0007 10.7133Z" fill="currentColor"/>
</g>
<defs>
<clipPath id="clip0_141_624">
<rect width="20" height="11" fill="white" transform="translate(0 0.5)"/>
</clipPath>
</defs>
</svg>
