<svg width="20" height="20" viewBox="0 0 20 20" fill="none" xmlns="http://www.w3.org/2000/svg">
  <path fill-rule="evenodd" clip-rule="evenodd" d="M8.5 1.75C4.77208 1.75 1.75 4.77208 1.75 8.5C1.75 12.2279 4.77208 15.25 8.5 15.25C10.3642 15.25 12.0506 14.4953 13.273 13.273C14.4953 12.0506 15.25 10.3642 15.25 8.5C15.25 4.77208 12.2279 1.75 8.5 1.75ZM0.25 8.5C0.25 3.94365 3.94365 0.25 8.5 0.25C13.0563 0.25 16.75 3.94365 16.75 8.5C16.75 10.5078 16.032 12.3491 14.8399 13.7793L19.5303 18.4697C19.8232 18.7626 19.8232 19.2374 19.5303 19.5303C19.2374 19.8232 18.7626 19.8232 18.4697 19.5303L13.7793 14.8399C12.3491 16.032 10.5078 16.75 8.5 16.75C3.94365 16.75 0.25 13.0563 0.25 8.5Z" fill="currentColor"/>
</svg>
