<svg width="19" height="26" viewBox="0 0 19 26" fill="none" xmlns="http://www.w3.org/2000/svg">
<g clip-path="url(#clip0_141_602)">
<path d="M1.69998 11.7L1.49998 12C-0.800017 15.6 -0.300018 20.3 2.79998 23.3C4.49998 25.1 6.89998 26 9.29998 26C9.29998 26 9.29998 26 1.69998 11.7Z" fill="currentColor"/>
<path opacity="0.6" d="M9.29995 16.0001L1.69995 11.6001C9.29995 26.0001 9.29995 26.0001 9.29995 26.0001C9.29995 22.9001 9.29995 19.3001 9.29995 16.0001Z" fill="currentColor"/>
<path opacity="0.6" d="M16.9 11.7L17.1 12C19.4 15.6 18.9 20.3 15.8 23.3C14 25.1 11.7 26 9.30005 26C9.30005 26 9.30005 26 16.9 11.7Z" fill="currentColor"/>
<path opacity="0.2" d="M9.30005 16.0001L16.9 11.6001C9.30005 26.0001 9.30005 26.0001 9.30005 26.0001C9.30005 22.9001 9.30005 19.3001 9.30005 16.0001Z" fill="currentColor"/>
<path opacity="0.2" d="M9.30005 6.30005V13.8L15.9 10.1L9.30005 6.30005Z" fill="currentColor"/>
<path opacity="0.6" d="M9.29995 6.30005L2.69995 10.1L9.29995 13.8V6.30005Z" fill="currentColor"/>
<path d="M9.29995 0L2.69995 10.1L9.29995 6.3V0Z" fill="currentColor"/>
<path opacity="0.6" d="M9.30005 6.3L15.9 10.1L9.30005 0V6.3Z" fill="currentColor"/>
</g>
<defs>
<clipPath id="clip0_141_602">
<rect width="18.6" height="26" fill="white"/>
</clipPath>
</defs>
</svg>
