<svg width="31" height="31" fill="none" xmlns="http://www.w3.org/2000/svg"><path d="M12.916 7.75h5.167a2.584 2.584 0 0 0-5.167 0Zm-2.583 0a5.167 5.167 0 0 1 10.333 0h6.459a1.292 1.292 0 0 1 0 2.583h-1.14l-1.144 13.356a5.167 5.167 0 0 1-5.149 4.727h-8.385a5.167 5.167 0 0 1-5.149-4.727L5.014 10.333h-1.14a1.292 1.292 0 0 1 0-2.583h6.459Zm9.042 7.75a1.292 1.292 0 0 0-2.584 0v5.166a1.291 1.291 0 1 0 2.584 0V15.5Zm-6.459-1.292a1.292 1.292 0 0 0-1.291 1.292v5.166a1.292 1.292 0 1 0 2.583 0V15.5a1.292 1.292 0 0 0-1.292-1.292Z" fill="currentColor"/></svg>
