<svg width="100%" height="100%" viewBox="0 0 24 24" fill="none" xmlns="http://www.w3.org/2000/svg">
  <path fill-rule="evenodd" clip-rule="evenodd" d="M19.5046 4.24227C19.0646 3.82583 18.3761 3.82508 17.9352 4.24056L11.9636 9.86786L5.99207 4.24056C5.55118 3.82508 4.86268 3.82583 4.42268 4.24227L4.35726 4.30419C3.8802 4.75571 3.88103 5.51549 4.35907 5.96597L10.2317 11.5L4.35907 17.034C3.88103 17.4845 3.8802 18.2443 4.35726 18.6958L4.42269 18.7577C4.86268 19.1742 5.55118 19.1749 5.99208 18.7594L11.9636 13.1321L17.9352 18.7594C18.3761 19.1749 19.0646 19.1742 19.5046 18.7577L19.57 18.6958C20.0471 18.2443 20.0463 17.4845 19.5682 17.034L13.6956 11.5L19.5682 5.96597C20.0463 5.51549 20.0471 4.75571 19.57 4.30419L19.5046 4.24227Z" fill="currentColor"/>
</svg>
