<svg fill="none" xmlns="http://www.w3.org/2000/svg" viewBox="0 0 28 28"><g clip-path="url(#a)"><path d="M2.531 8.511v10.976c0 .706.37 1.344.986 1.703l9.509 5.488a1.974 1.974 0 0 0 1.96 0l9.508-5.488c.605-.348.986-.997.986-1.703V8.511c0-.705-.37-1.344-.986-1.702L14.986 1.32a1.974 1.974 0 0 0-1.96 0l-9.51 5.488a1.956 1.956 0 0 0-.974 1.702h-.01Z" fill="#213147"/><path d="m16.072 16.128-1.355 3.718a.536.536 0 0 0 0 .325l2.33 6.395 2.699-1.557-3.237-8.881a.233.233 0 0 0-.437 0ZM18.794 9.878a.233.233 0 0 0-.437 0l-1.355 3.718a.536.536 0 0 0 0 .325l3.819 10.472 2.699-1.557L18.794 9.89v-.011Z" fill="#12AAFF"/><path d="M14 1.736c.067 0 .134.022.19.056l10.282 5.936a.38.38 0 0 1 .19.336v11.872a.405.405 0 0 1-.19.336L14.19 26.208a.378.378 0 0 1-.19.056.378.378 0 0 1-.19-.056L3.528 20.272a.38.38 0 0 1-.19-.336V8.053c0-.135.078-.269.19-.336L13.81 1.78a.378.378 0 0 1 .19-.056v.011ZM14 0c-.37 0-.728.09-1.064.28L2.654 6.216A2.112 2.112 0 0 0 1.59 8.053v11.872c0 .761.404 1.456 1.064 1.837l10.282 5.936a2.1 2.1 0 0 0 1.064.28c.37 0 .728-.09 1.064-.28l10.282-5.936a2.112 2.112 0 0 0 1.064-1.837V8.053c0-.762-.404-1.456-1.064-1.837L15.053.28A2.1 2.1 0 0 0 13.989 0H14Z" fill="#9DCCED"/><path d="m7.19 24.405.952-2.598 1.904 1.579-1.78 1.635-1.076-.616Z" fill="#213147"/><path d="M13.126 7.212h-2.61c-.19 0-.369.124-.436.303L4.491 22.836l2.7 1.557 6.16-16.878a.23.23 0 0 0-.213-.314l-.012.011ZM17.696 7.212h-2.61c-.19 0-.37.124-.436.303L8.266 25.009l2.699 1.557 6.944-19.051a.23.23 0 0 0-.213-.314v.011Z" fill="#fff"/></g><defs><clipPath id="a"><path fill="#fff" d="M0 0h28v28H0z"/></clipPath></defs></svg>
